<svg version="1.1" id="Layer_1" xmlns="http://www.w3.org/2000/svg" xmlns:xlink="http://www.w3.org/1999/xlink" x="0px" y="0px"
	 width="100%" viewBox="0 0 1042 585" enable-background="new 0 0 1042 585" xml:space="preserve">
<path fill="#FFF2D4" opacity="1.000000" stroke="none" 
	d="
M504.000000,1.000000 
	C683.627502,1.000000 863.255066,1.000000 1042.941284,1.000000 
	C1042.941284,195.918335 1042.941284,390.836700 1042.941284,586.000000 
	C776.639832,586.000000 510.279633,586.000000 243.538940,585.536926 
	C243.289902,537.245056 243.396759,489.416199 243.594803,441.587677 
	C243.612610,437.285553 243.581100,432.817047 244.665253,428.714600 
	C249.098816,411.938110 262.401428,402.272705 280.422211,401.750946 
	C291.562958,401.428406 302.759766,401.191895 313.809296,399.884796 
	C363.385773,394.020020 405.861206,373.038086 440.883026,337.673584 
	C482.505615,295.643707 503.772491,244.739090 504.114014,185.475784 
	C504.396332,136.480927 504.183075,87.483139 504.163879,38.486660 
	C504.158997,25.991087 504.057251,13.495552 504.000000,1.000000 
z"/>
<path fill="#D2400B" opacity="1.000000" stroke="none" 
	d="
M53.000000,586.000000 
	C35.674622,586.000000 18.349239,586.000000 1.017895,586.000000 
	C1.011930,391.097412 1.011930,196.194855 1.011930,1.000000 
	C105.021248,1.000000 209.042770,1.000000 313.559021,1.468054 
	C313.754669,50.556419 313.446320,99.176674 313.164001,147.797089 
	C313.104004,158.127808 313.188812,168.459595 313.089020,178.789734 
	C313.068512,180.914764 312.771423,183.107101 312.179443,185.145752 
	C306.933899,203.209671 294.497925,211.330139 276.039581,212.138092 
	C265.442505,212.601944 254.765030,212.856888 244.300064,214.400940 
	C215.084335,218.711548 187.833847,228.837952 162.462814,243.944672 
	C139.362961,257.699066 119.744263,275.579376 102.754433,296.212921 
	C89.410774,312.418304 78.829300,330.448242 70.636131,349.876251 
	C60.147774,374.746704 53.618252,400.622040 53.294518,427.539520 
	C52.659325,480.353210 53.039814,533.179138 53.000000,586.000000 
z"/>
<path fill="#3E8073" opacity="1.000000" stroke="none" 
	d="
M503.531342,1.000000 
	C504.057251,13.495552 504.158997,25.991087 504.163879,38.486660 
	C504.183075,87.483139 504.396332,136.480927 504.114014,185.475784 
	C503.772491,244.739090 482.505615,295.643707 440.883026,337.673584 
	C405.861206,373.038086 363.385773,394.020020 313.809296,399.884796 
	C302.759766,401.191895 291.562958,401.428406 280.422211,401.750946 
	C262.401428,402.272705 249.098816,411.938110 244.665253,428.714600 
	C243.581100,432.817047 243.612610,437.285553 243.594803,441.587677 
	C243.396759,489.416199 243.289902,537.245056 243.079224,585.536926 
	C232.312439,586.000000 221.624878,586.000000 210.550537,585.537231 
	C210.178482,536.423401 210.419739,487.770996 210.137177,439.121613 
	C209.906006,399.317169 242.776505,367.764374 280.840576,368.722992 
	C300.038452,369.206482 318.977234,366.783417 337.590668,361.490662 
	C374.992249,350.855469 405.923187,330.282990 430.149628,300.262299 
	C457.864655,265.918671 471.358459,226.227997 471.242249,181.927689 
	C471.088440,123.279976 471.206421,64.631538 471.196350,5.983412 
	C471.196045,4.322264 471.068298,2.661137 471.000000,1.000000 
	C481.687561,1.000000 492.375122,1.000000 503.531342,1.000000 
z"/>
<path fill="#FFAE02" opacity="1.000000" stroke="none" 
	d="
M53.468658,586.000000 
	C53.039814,533.179138 52.659325,480.353210 53.294518,427.539520 
	C53.618252,400.622040 60.147774,374.746704 70.636131,349.876251 
	C78.829300,330.448242 89.410774,312.418304 102.754433,296.212921 
	C119.744263,275.579376 139.362961,257.699066 162.462814,243.944672 
	C187.833847,228.837952 215.084335,218.711548 244.300064,214.400940 
	C254.765030,212.856888 265.442505,212.601944 276.039581,212.138092 
	C294.497925,211.330139 306.933899,203.209671 312.179443,185.145752 
	C312.771423,183.107101 313.068512,180.914764 313.089020,178.789734 
	C313.188812,168.459595 313.104004,158.127808 313.164001,147.797089 
	C313.446320,99.176674 313.754669,50.556419 314.026855,1.468054 
	C324.687561,1.000000 335.375122,1.000000 346.546570,1.468473 
	C346.960327,43.436512 346.929047,84.936203 346.802032,126.435593 
	C346.746399,144.597046 347.075775,162.785660 346.209290,180.913132 
	C344.510193,216.458771 314.983124,244.066742 279.512390,245.234634 
	C264.780457,245.719696 249.845154,247.128662 235.477188,250.281418 
	C185.627777,261.219818 146.868317,289.158325 118.335411,331.016754 
	C95.932610,363.882172 86.150574,400.888641 86.061409,440.501617 
	C85.952240,489.000885 86.012817,537.500549 86.000000,586.000000 
	C75.312439,586.000000 64.624878,586.000000 53.468658,586.000000 
z"/>
<path fill="#992901" opacity="1.000000" stroke="none" 
	d="
M190.000000,586.000000 
	C179.312439,586.000000 168.624878,586.000000 157.477966,585.531372 
	C157.329254,536.090393 157.804794,487.118225 157.871078,438.145477 
	C157.898407,417.949219 162.079788,398.873291 171.863205,381.291779 
	C194.003372,341.504486 227.762848,319.763336 273.452148,316.879242 
	C285.544586,316.115875 297.860474,316.071564 309.631500,313.595093 
	C338.481567,307.525330 363.207367,293.611877 383.136536,271.503876 
	C407.014557,245.015213 418.879517,213.963852 418.936432,178.404022 
	C419.031067,119.269463 418.986176,60.134686 419.000000,1.000000 
	C429.687561,1.000000 440.375122,1.000000 451.550598,1.468317 
	C452.039886,60.572029 452.098328,119.207512 452.015137,177.842773 
	C451.980591,202.195282 447.627258,225.797409 437.580231,248.041290 
	C422.109802,282.292328 397.841187,308.776215 365.232971,327.467529 
	C341.636993,340.992981 316.169281,348.135742 288.952667,349.080383 
	C281.145569,349.351379 273.285919,349.552734 265.566803,350.624634 
	C247.080139,353.191681 230.978790,361.259583 217.661835,374.188263 
	C201.560928,389.819763 191.652863,409.046875 191.234482,431.594330 
	C190.279663,483.052795 190.347580,534.530273 190.000000,586.000000 
z"/>
<path fill="#D34B26" opacity="1.000000" stroke="none" 
	d="
M139.000000,586.000000 
	C128.312439,586.000000 117.624878,586.000000 106.329651,585.548462 
	C105.701561,535.955322 105.525635,486.813202 105.710526,437.672424 
	C105.855202,399.221100 116.987442,364.291870 140.495010,333.584106 
	C157.029480,311.985229 177.251205,294.847168 201.610733,282.541779 
	C226.669815,269.882965 253.402695,264.821075 281.181091,264.176483 
	C301.808533,263.697815 319.970398,256.569153 335.438690,243.184723 
	C356.292816,225.140060 366.107300,201.937668 366.079529,174.402222 
	C366.033325,128.591690 366.133362,82.781036 366.144745,36.970428 
	C366.147736,24.980299 366.050964,12.990144 366.000000,1.000000 
	C376.687561,1.000000 387.375122,1.000000 398.631958,1.459715 
	C399.116394,59.220589 398.922821,116.521896 398.997925,173.822845 
	C399.029938,198.269058 393.223114,220.960938 379.867432,241.494568 
	C360.857056,270.722015 334.247070,289.070404 299.850159,295.135071 
	C288.113983,297.204315 275.934174,296.615326 264.071350,298.133728 
	C217.620590,304.079437 181.834198,326.715424 157.644897,367.143066 
	C146.581436,385.633453 139.686157,405.689728 139.332352,427.112061 
	C138.542999,474.906677 138.883957,522.720093 138.788376,570.525818 
	C138.778061,575.683777 138.925659,580.841919 139.000000,586.000000 
z"/>
<path fill="#FEF1D3" opacity="1.000000" stroke="none" 
	d="
M190.468414,586.000000 
	C190.347580,534.530273 190.279663,483.052795 191.234482,431.594330 
	C191.652863,409.046875 201.560928,389.819763 217.661835,374.188263 
	C230.978790,361.259583 247.080139,353.191681 265.566803,350.624634 
	C273.285919,349.552734 281.145569,349.351379 288.952667,349.080383 
	C316.169281,348.135742 341.636993,340.992981 365.232971,327.467529 
	C397.841187,308.776215 422.109802,282.292328 437.580231,248.041290 
	C447.627258,225.797409 451.980591,202.195282 452.015137,177.842773 
	C452.098328,119.207512 452.039886,60.572029 452.019287,1.468317 
	C458.021149,1.000000 464.042297,1.000000 470.531738,1.000000 
	C471.068298,2.661137 471.196045,4.322264 471.196350,5.983412 
	C471.206421,64.631538 471.088440,123.279976 471.242249,181.927689 
	C471.358459,226.227997 457.864655,265.918671 430.149628,300.262299 
	C405.923187,330.282990 374.992249,350.855469 337.590668,361.490662 
	C318.977234,366.783417 300.038452,369.206482 280.840576,368.722992 
	C242.776505,367.764374 209.906006,399.317169 210.137177,439.121613 
	C210.419739,487.770996 210.178482,536.423401 210.081879,585.537231 
	C203.645599,586.000000 197.291214,586.000000 190.468414,586.000000 
z"/>
<path fill="#FEF0D2" opacity="1.000000" stroke="none" 
	d="
M139.467941,586.000000 
	C138.925659,580.841919 138.778061,575.683777 138.788376,570.525818 
	C138.883957,522.720093 138.542999,474.906677 139.332352,427.112061 
	C139.686157,405.689728 146.581436,385.633453 157.644897,367.143066 
	C181.834198,326.715424 217.620590,304.079437 264.071350,298.133728 
	C275.934174,296.615326 288.113983,297.204315 299.850159,295.135071 
	C334.247070,289.070404 360.857056,270.722015 379.867432,241.494568 
	C393.223114,220.960938 399.029938,198.269058 398.997925,173.822845 
	C398.922821,116.521896 399.116394,59.220589 399.100616,1.459715 
	C405.354401,1.000000 411.708801,1.000000 418.531616,1.000000 
	C418.986176,60.134686 419.031067,119.269463 418.936432,178.404022 
	C418.879517,213.963852 407.014557,245.015213 383.136536,271.503876 
	C363.207367,293.611877 338.481567,307.525330 309.631500,313.595093 
	C297.860474,316.071564 285.544586,316.115875 273.452148,316.879242 
	C227.762848,319.763336 194.003372,341.504486 171.863205,381.291779 
	C162.079788,398.873291 157.898407,417.949219 157.871078,438.145477 
	C157.804794,487.118225 157.329254,536.090393 157.009308,585.531372 
	C151.311966,586.000000 145.623917,586.000000 139.467941,586.000000 
z"/>
<path fill="#FFF0D2" opacity="1.000000" stroke="none" 
	d="
M365.531738,1.000000 
	C366.050964,12.990144 366.147736,24.980299 366.144745,36.970428 
	C366.133362,82.781036 366.033325,128.591690 366.079529,174.402222 
	C366.107300,201.937668 356.292816,225.140060 335.438690,243.184723 
	C319.970398,256.569153 301.808533,263.697815 281.181091,264.176483 
	C253.402695,264.821075 226.669815,269.882965 201.610733,282.541779 
	C177.251205,294.847168 157.029480,311.985229 140.495010,333.584106 
	C116.987442,364.291870 105.855202,399.221100 105.710526,437.672424 
	C105.525635,486.813202 105.701561,535.955322 105.860992,585.548462 
	C99.645599,586.000000 93.291206,586.000000 86.468399,586.000000 
	C86.012817,537.500549 85.952240,489.000885 86.061409,440.501617 
	C86.150574,400.888641 95.932610,363.882172 118.335411,331.016754 
	C146.868317,289.158325 185.627777,261.219818 235.477188,250.281418 
	C249.845154,247.128662 264.780457,245.719696 279.512390,245.234634 
	C314.983124,244.066742 344.510193,216.458771 346.209290,180.913132 
	C347.075775,162.785660 346.746399,144.597046 346.802032,126.435593 
	C346.929047,84.936203 346.960327,43.436512 347.015259,1.468473 
	C353.021149,1.000000 359.042297,1.000000 365.531738,1.000000 
z"/>
</svg>