<svg version="1.1" id="Layer_1" xmlns="http://www.w3.org/2000/svg" xmlns:xlink="http://www.w3.org/1999/xlink" x="0px" y="0px"
	 width="100%" viewBox="0 0 585 1042" enable-background="new 0 0 585 1042" xml:space="preserve">
<path fill="#FFF2D4" opacity="1.000000" stroke="none" 
	d="
M1.000000,801.000000 
	C1.000000,534.391541 1.000000,267.783051 1.000000,1.087285 
	C195.899216,1.087285 390.798492,1.087285 586.000000,1.087285 
	C586.000000,180.360077 586.000000,359.720306 585.535645,539.471191 
	C525.908752,539.850647 466.743835,540.164307 407.584686,539.716370 
	C366.817719,539.407654 328.745819,548.559753 293.454773,569.034119 
	C260.500763,588.152588 234.375137,614.309692 215.044250,646.979065 
	C194.294708,682.045959 184.456131,720.307068 185.346512,761.012695 
	C185.816101,782.481323 171.198196,800.977783 145.970337,800.650574 
	C99.650490,800.049683 53.314663,800.678833 6.985531,800.806702 
	C4.990191,800.812195 2.995170,800.932922 1.000000,801.000000 
z"/>
<path fill="#D2400B" opacity="1.000000" stroke="none" 
	d="
M586.000000,730.000000 
	C586.000000,834.285461 586.000000,938.570984 586.000000,1042.928223 
	C391.000000,1042.928223 196.000015,1042.928223 1.000000,1042.928223 
	C1.000000,1025.919922 1.000000,1008.927795 1.467691,991.433838 
	C10.600025,990.924072 19.264950,990.958557 27.929264,990.901001 
	C76.048302,990.581360 124.184067,990.853882 172.275894,989.532471 
	C186.794739,989.133606 201.561646,985.504333 215.567245,981.231689 
	C244.897446,972.284180 271.542389,957.914124 294.857025,937.655579 
	C318.044464,917.507385 337.295776,894.391235 351.085571,866.743591 
	C366.851959,835.132935 374.731506,801.852173 375.032227,766.526001 
	C375.233124,742.922852 393.580078,730.661377 411.647095,730.720947 
	C447.768890,730.840149 483.892609,730.173767 520.016296,729.970398 
	C542.010132,729.846497 564.005371,729.981384 586.000000,730.000000 
z"/>
<path fill="#3E8073" opacity="1.000000" stroke="none" 
	d="
M1.000000,801.468628 
	C2.995170,800.932922 4.990191,800.812195 6.985531,800.806702 
	C53.314663,800.678833 99.650490,800.049683 145.970337,800.650574 
	C171.198196,800.977783 185.816101,782.481323 185.346512,761.012695 
	C184.456131,720.307068 194.294708,682.045959 215.044250,646.979065 
	C234.375137,614.309692 260.500763,588.152588 293.454773,569.034119 
	C328.745819,548.559753 366.817719,539.407654 407.584686,539.716370 
	C466.743835,540.164307 525.908752,539.850647 585.535645,539.930908 
	C586.000000,550.687561 586.000000,561.375122 585.537231,572.449463 
	C524.260620,572.824585 463.445251,572.586792 402.634003,572.982727 
	C389.725769,573.066772 376.618103,574.414307 363.974884,577.000793 
	C332.725006,583.393616 305.068939,597.587646 281.102203,618.688232 
	C258.754364,638.363586 241.934021,661.965149 231.080704,689.799500 
	C221.941299,713.238464 218.375458,737.561096 217.999664,762.600037 
	C217.876404,770.813049 217.072464,779.438721 214.397675,787.115356 
	C204.313690,816.055908 178.754440,833.689087 147.938507,833.762695 
	C100.953621,833.874939 53.968266,833.791504 6.983108,833.803711 
	C4.988722,833.804260 2.994369,833.931702 1.000000,834.000000 
	C1.000000,823.312439 1.000000,812.624878 1.000000,801.468628 
z"/>
<path fill="#FFAE02" opacity="1.000000" stroke="none" 
	d="
M586.000000,729.531372 
	C564.005371,729.981384 542.010132,729.846497 520.016296,729.970398 
	C483.892609,730.173767 447.768890,730.840149 411.647095,730.720947 
	C393.580078,730.661377 375.233124,742.922852 375.032227,766.526001 
	C374.731506,801.852173 366.851959,835.132935 351.085571,866.743591 
	C337.295776,894.391235 318.044464,917.507385 294.857025,937.655579 
	C271.542389,957.914124 244.897446,972.284180 215.567245,981.231689 
	C201.561646,985.504333 186.794739,989.133606 172.275894,989.532471 
	C124.184067,990.853882 76.048302,990.581360 27.929264,990.901001 
	C19.264950,990.958557 10.600025,990.924072 1.467691,990.966064 
	C1.000000,980.312439 1.000000,969.624878 1.468449,958.453369 
	C49.936684,957.966797 97.938560,958.210022 145.934875,957.800476 
	C159.026596,957.688721 172.280258,956.597534 185.151352,954.259277 
	C226.976517,946.660889 262.291412,926.774536 291.059998,895.475098 
	C321.589142,862.260071 338.362122,823.118408 341.186066,778.025208 
	C341.757233,768.904236 341.666534,759.562378 343.707458,750.745056 
	C351.226166,718.262146 378.097229,697.505371 412.502686,697.333801 
	C470.334229,697.045471 528.167480,697.093506 586.000000,697.000000 
	C586.000000,707.687561 586.000000,718.375122 586.000000,729.531372 
z"/>
<path fill="#992901" opacity="1.000000" stroke="none" 
	d="
M1.000000,887.000000 
	C1.000000,876.312439 1.000000,865.624878 1.468345,854.450195 
	C50.576050,853.691833 99.215637,853.452393 147.854431,853.102478 
	C152.982346,853.065552 158.142944,852.650391 163.225067,851.950806 
	C202.957306,846.481384 235.054138,811.385803 237.115921,771.569275 
	C237.733658,759.639771 238.397842,747.667114 239.988983,735.841858 
	C244.880402,699.488770 261.330017,668.658447 286.837311,642.733704 
	C319.795837,609.235779 360.258362,592.441650 407.097229,592.076355 
	C466.728027,591.611206 526.365417,591.986816 586.000000,592.000000 
	C586.000000,602.687561 586.000000,613.375122 585.531677,624.549438 
	C525.595337,625.038147 466.126984,624.938965 406.659729,625.154663 
	C398.063721,625.185852 389.311401,625.953613 380.908112,627.706787 
	C344.466675,635.309448 315.395325,654.448486 294.299164,685.196594 
	C280.001892,706.035095 272.040100,729.158142 270.979614,754.526001 
	C270.652832,762.343506 270.905212,770.238037 269.885529,777.964417 
	C266.121918,806.482483 254.968552,831.531311 233.893372,851.662903 
	C210.536484,873.974121 182.887360,885.850220 150.415512,886.049194 
	C100.610268,886.354370 50.805164,886.682007 1.000000,887.000000 
z"/>
<path fill="#D34B26" opacity="1.000000" stroke="none" 
	d="
M586.000000,645.000000 
	C586.000000,655.687561 586.000000,666.375122 585.536011,677.458862 
	C527.100647,677.885010 469.126160,677.566711 411.158813,678.070496 
	C374.162445,678.391968 347.284241,695.865295 330.676575,728.993103 
	C323.764557,742.780701 322.901062,757.718445 322.177765,772.729797 
	C319.879852,820.422607 301.160889,860.472595 266.031860,892.857666 
	C234.336288,922.077271 196.835770,937.416382 153.876099,938.022949 
	C103.910614,938.728394 53.929054,938.296204 3.954459,938.339600 
	C2.969739,938.340454 1.984826,938.118164 1.000001,938.000000 
	C1.000000,927.312439 1.000000,916.624878 1.461669,905.557495 
	C51.064564,905.189331 100.205811,905.174255 149.347000,905.222656 
	C179.405426,905.252258 206.733170,896.663635 231.129517,879.139038 
	C255.344742,861.744507 272.294067,838.840332 282.073059,810.644348 
	C287.648376,794.569153 289.308777,777.915344 289.891052,761.035583 
	C290.999329,728.907349 303.429932,701.474915 326.301819,679.240356 
	C350.016235,656.186768 378.920319,645.034790 412.118011,645.029053 
	C468.253876,645.019348 524.389771,644.850342 580.525635,644.762939 
	C582.350281,644.760132 584.175232,644.917358 586.000000,645.000000 
z"/>
<path fill="#FEF1D3" opacity="1.000000" stroke="none" 
	d="
M586.000000,591.531738 
	C526.365417,591.986816 466.728027,591.611206 407.097229,592.076355 
	C360.258362,592.441650 319.795837,609.235779 286.837311,642.733704 
	C261.330017,668.658447 244.880402,699.488770 239.988983,735.841858 
	C238.397842,747.667114 237.733658,759.639771 237.115921,771.569275 
	C235.054138,811.385803 202.957306,846.481384 163.225067,851.950806 
	C158.142944,852.650391 152.982346,853.065552 147.854431,853.102478 
	C99.215637,853.452393 50.576050,853.691833 1.468345,853.981567 
	C1.000000,847.645569 1.000000,841.291199 1.000000,834.468384 
	C2.994369,833.931702 4.988722,833.804260 6.983108,833.803711 
	C53.968266,833.791504 100.953621,833.874939 147.938507,833.762695 
	C178.754440,833.689087 204.313690,816.055908 214.397675,787.115356 
	C217.072464,779.438721 217.876404,770.813049 217.999664,762.600037 
	C218.375458,737.561096 221.941299,713.238464 231.080704,689.799500 
	C241.934021,661.965149 258.754364,638.363586 281.102203,618.688232 
	C305.068939,597.587646 332.725006,583.393616 363.974884,577.000793 
	C376.618103,574.414307 389.725769,573.066772 402.634003,572.982727 
	C463.445251,572.586792 524.260620,572.824585 585.537231,572.918152 
	C586.000000,579.021179 586.000000,585.042297 586.000000,591.531738 
z"/>
<path fill="#FEF0D2" opacity="1.000000" stroke="none" 
	d="
M586.000000,644.531616 
	C584.175232,644.917358 582.350281,644.760132 580.525635,644.762939 
	C524.389771,644.850342 468.253876,645.019348 412.118011,645.029053 
	C378.920319,645.034790 350.016235,656.186768 326.301819,679.240356 
	C303.429932,701.474915 290.999329,728.907349 289.891052,761.035583 
	C289.308777,777.915344 287.648376,794.569153 282.073059,810.644348 
	C272.294067,838.840332 255.344742,861.744507 231.129517,879.139038 
	C206.733170,896.663635 179.405426,905.252258 149.347000,905.222656 
	C100.205811,905.174255 51.064564,905.189331 1.461669,905.088806 
	C1.000000,899.311951 1.000000,893.623962 1.000000,887.467957 
	C50.805164,886.682007 100.610268,886.354370 150.415512,886.049194 
	C182.887360,885.850220 210.536484,873.974121 233.893372,851.662903 
	C254.968552,831.531311 266.121918,806.482483 269.885529,777.964417 
	C270.905212,770.238037 270.652832,762.343506 270.979614,754.526001 
	C272.040100,729.158142 280.001892,706.035095 294.299164,685.196594 
	C315.395325,654.448486 344.466675,635.309448 380.908112,627.706787 
	C389.311401,625.953613 398.063721,625.185852 406.659729,625.154663 
	C466.126984,624.938965 525.595337,625.038147 585.531677,625.018066 
	C586.000000,631.354431 586.000000,637.708801 586.000000,644.531616 
z"/>
<path fill="#FFF0D2" opacity="1.000000" stroke="none" 
	d="
M1.000001,938.468384 
	C1.984826,938.118164 2.969739,938.340454 3.954459,938.339600 
	C53.929054,938.296204 103.910614,938.728394 153.876099,938.022949 
	C196.835770,937.416382 234.336288,922.077271 266.031860,892.857666 
	C301.160889,860.472595 319.879852,820.422607 322.177765,772.729797 
	C322.901062,757.718445 323.764557,742.780701 330.676575,728.993103 
	C347.284241,695.865295 374.162445,678.391968 411.158813,678.070496 
	C469.126160,677.566711 527.100647,677.885010 585.536011,677.927551 
	C586.000000,684.021179 586.000000,690.042297 586.000000,696.531738 
	C528.167480,697.093506 470.334229,697.045471 412.502686,697.333801 
	C378.097229,697.505371 351.226166,718.262146 343.707458,750.745056 
	C341.666534,759.562378 341.757233,768.904236 341.186066,778.025208 
	C338.362122,823.118408 321.589142,862.260071 291.059998,895.475098 
	C262.291412,926.774536 226.976517,946.660889 185.151352,954.259277 
	C172.280258,956.597534 159.026596,957.688721 145.934875,957.800476 
	C97.938560,958.210022 49.936684,957.966797 1.468449,957.984680 
	C1.000000,951.645569 1.000000,945.291199 1.000001,938.468384 
z"/>
</svg>