<svg version="1.1" id="Layer_1" xmlns="http://www.w3.org/2000/svg" xmlns:xlink="http://www.w3.org/1999/xlink" x="0px" y="0px"
	 width="100%" viewBox="0 0 1042 585" enable-background="new 0 0 1042 585" xml:space="preserve">
<path fill="#FFF2D4" opacity="1.000000" stroke="none" 
	d="
M801.000000,586.000000 
	C534.391479,586.000000 267.782959,586.000000 1.087214,586.000000 
	C1.087214,391.100708 1.087214,196.201340 1.087214,1.000000 
	C180.360077,1.000000 359.720306,1.000000 539.471191,1.464412 
	C539.850586,61.091213 540.164307,120.256058 539.716370,179.415131 
	C539.407654,220.182129 548.559631,258.254059 569.033997,293.545105 
	C588.152527,326.499115 614.309570,352.624786 646.978943,371.955750 
	C682.045837,392.705292 720.307007,402.543793 761.012634,401.653442 
	C782.482605,401.183868 800.977722,415.802948 800.650452,441.029633 
	C800.049561,487.349487 800.678833,533.685303 800.806702,580.014465 
	C800.812195,582.009766 800.932922,584.004822 801.000000,586.000000 
z"/>
<path fill="#D2400B" opacity="1.000000" stroke="none" 
	d="
M730.000000,1.000000 
	C834.285461,1.000000 938.570984,1.000000 1042.928223,1.000000 
	C1042.928223,195.999985 1042.928223,391.000000 1042.928223,586.000000 
	C1025.920044,586.000000 1008.927856,586.000000 991.433838,585.532349 
	C990.924011,576.399963 990.958557,567.734985 990.901001,559.070679 
	C990.581360,510.951630 990.853821,462.815887 989.532349,414.724091 
	C989.133423,400.205231 985.504211,385.438416 981.231689,371.432770 
	C972.284302,342.102539 957.914124,315.457642 937.655518,292.143005 
	C917.507385,268.955566 894.391235,249.704269 866.743530,235.914505 
	C835.132874,220.148117 801.852173,212.268402 766.526001,211.967789 
	C742.923645,211.766922 730.661438,193.421509 730.721008,175.352905 
	C730.839966,139.231140 730.173706,103.107399 729.970337,66.983704 
	C729.846497,44.989887 729.981384,22.994616 730.000000,1.000000 
z"/>
<path fill="#3E8073" opacity="1.000000" stroke="none" 
	d="
M801.468628,586.000000 
	C800.932922,584.004822 800.812195,582.009766 800.806702,580.014465 
	C800.678833,533.685303 800.049561,487.349487 800.650452,441.029633 
	C800.977722,415.802948 782.482605,401.183868 761.012634,401.653442 
	C720.307007,402.543793 682.045837,392.705292 646.978943,371.955750 
	C614.309570,352.624786 588.152527,326.499115 569.033997,293.545105 
	C548.559631,258.254059 539.407654,220.182129 539.716370,179.415131 
	C540.164307,120.256058 539.850586,61.091213 539.930908,1.464412 
	C550.687561,1.000000 561.375122,1.000000 572.449463,1.462721 
	C572.824585,62.739357 572.586792,123.554749 572.982727,184.365997 
	C573.066833,197.274231 574.414307,210.381912 577.000732,223.025162 
	C583.393616,254.275009 597.587646,281.931061 618.688232,305.897797 
	C638.363525,328.245605 661.965088,345.065979 689.799438,355.919281 
	C713.238342,365.058685 737.561096,368.624542 762.600037,369.000427 
	C770.813049,369.123688 779.438721,369.927521 787.115356,372.602356 
	C816.055969,382.686401 833.689148,408.245483 833.762695,439.061493 
	C833.874878,486.046417 833.791504,533.031738 833.803711,580.016907 
	C833.804260,582.011292 833.931641,584.005615 834.000000,586.000000 
	C823.312439,586.000000 812.624878,586.000000 801.468628,586.000000 
z"/>
<path fill="#FFAE02" opacity="1.000000" stroke="none" 
	d="
M729.531372,1.000000 
	C729.981384,22.994616 729.846497,44.989887 729.970337,66.983704 
	C730.173706,103.107399 730.839966,139.231140 730.721008,175.352905 
	C730.661438,193.421509 742.923645,211.766922 766.526001,211.967789 
	C801.852173,212.268402 835.132874,220.148117 866.743530,235.914505 
	C894.391235,249.704269 917.507385,268.955566 937.655518,292.143005 
	C957.914124,315.457642 972.284302,342.102539 981.231689,371.432770 
	C985.504211,385.438416 989.133423,400.205231 989.532349,414.724091 
	C990.853821,462.815887 990.581360,510.951630 990.901001,559.070679 
	C990.958557,567.734985 990.924011,576.399963 990.966003,585.532349 
	C980.312439,586.000000 969.624878,586.000000 958.453369,585.531555 
	C957.966858,537.063538 958.210022,489.061890 957.800476,441.065796 
	C957.688782,427.974060 956.597778,414.720367 954.259521,401.849213 
	C946.661255,360.023987 926.774963,324.708984 895.475525,295.940308 
	C862.260620,265.411072 823.118896,248.637894 778.025635,245.813934 
	C768.904663,245.242737 759.562805,245.333496 750.745483,243.292633 
	C718.262756,235.774185 697.505432,208.902847 697.333862,174.497513 
	C697.045471,116.665894 697.093506,58.832592 697.000000,1.000000 
	C707.687561,1.000000 718.375122,1.000000 729.531372,1.000000 
z"/>
<path fill="#992901" opacity="1.000000" stroke="none" 
	d="
M887.000000,586.000000 
	C876.312439,586.000000 865.624878,586.000000 854.450256,585.531677 
	C853.691956,536.423767 853.452515,487.783936 853.102539,439.144867 
	C853.065613,434.016937 852.650513,428.856354 851.950928,423.774200 
	C846.481567,384.042511 811.386047,351.946228 771.568726,349.883942 
	C759.639221,349.266113 747.666565,348.602142 735.841309,347.010803 
	C699.488525,342.118805 668.658386,325.669373 642.733459,300.162354 
	C609.235229,267.203979 592.442261,226.740997 592.076477,179.902771 
	C591.610779,120.271950 591.986877,60.634556 592.000000,1.000000 
	C602.687561,1.000000 613.375122,1.000000 624.549316,1.468362 
	C625.037903,61.404827 624.938782,120.873299 625.154480,180.340622 
	C625.185669,188.936630 625.953308,197.688950 627.706482,206.092239 
	C635.309265,242.533676 654.448303,271.605042 685.196472,292.701141 
	C706.034973,306.998352 729.157898,314.958282 754.525879,316.021667 
	C762.509216,316.356293 770.570190,316.123322 778.459656,317.172638 
	C801.596008,320.249725 822.937683,328.167542 841.008484,343.306549 
	C869.518372,367.190857 885.482056,397.559082 885.962891,435.086273 
	C886.607422,485.387024 886.681152,535.695068 887.000000,586.000000 
z"/>
<path fill="#D34B26" opacity="1.000000" stroke="none" 
	d="
M938.000000,586.000000 
	C927.312439,586.000000 916.624878,586.000000 905.557617,585.538330 
	C905.189636,535.935852 905.174438,486.794983 905.222900,437.654205 
	C905.252563,407.596039 896.664490,380.268463 879.140259,355.871887 
	C861.746094,331.656372 838.843506,314.703125 810.646179,304.929047 
	C794.572083,299.357208 777.919922,297.685028 761.037903,297.106598 
	C728.909729,296.005768 701.476135,283.572144 679.242432,260.699524 
	C656.189697,236.984360 645.036194,208.078690 645.029663,174.880936 
	C645.018677,118.745399 644.850586,62.609890 644.763245,6.474347 
	C644.760437,4.649692 644.917480,2.824788 645.000000,1.000000 
	C655.687561,1.000000 666.375122,1.000000 677.458862,1.463995 
	C677.884949,59.899441 677.566711,117.873924 678.070435,175.841248 
	C678.391968,212.837540 695.865112,239.715836 728.992920,256.323486 
	C742.780579,263.235535 757.718323,264.099091 772.729675,264.822357 
	C820.422424,267.120331 860.472412,285.839081 892.857422,320.968201 
	C922.077148,352.663788 937.416382,390.164185 938.022888,433.123962 
	C938.728271,483.089417 938.296021,533.070984 938.339417,583.045532 
	C938.340271,584.030273 938.118103,585.015198 938.000000,586.000000 
z"/>
<path fill="#FEF1D3" opacity="1.000000" stroke="none" 
	d="
M591.531738,1.000000 
	C591.986877,60.634556 591.610779,120.271950 592.076477,179.902771 
	C592.442261,226.740997 609.235229,267.203979 642.733459,300.162354 
	C668.658386,325.669373 699.488525,342.118805 735.841309,347.010803 
	C747.666565,348.602142 759.639221,349.266113 771.568726,349.883942 
	C811.386047,351.946228 846.481567,384.042511 851.950928,423.774200 
	C852.650513,428.856354 853.065613,434.016937 853.102539,439.144867 
	C853.452515,487.783936 853.691956,536.423767 853.981567,585.531677 
	C847.645569,586.000000 841.291199,586.000000 834.468384,586.000000 
	C833.931641,584.005615 833.804260,582.011292 833.803711,580.016907 
	C833.791504,533.031738 833.874878,486.046417 833.762695,439.061493 
	C833.689148,408.245483 816.055969,382.686401 787.115356,372.602356 
	C779.438721,369.927521 770.813049,369.123688 762.600037,369.000427 
	C737.561096,368.624542 713.238342,365.058685 689.799438,355.919281 
	C661.965088,345.065979 638.363525,328.245605 618.688232,305.897797 
	C597.587646,281.931061 583.393616,254.275009 577.000732,223.025162 
	C574.414307,210.381912 573.066833,197.274231 572.982727,184.365997 
	C572.586792,123.554749 572.824585,62.739357 572.918152,1.462721 
	C579.021179,1.000000 585.042297,1.000000 591.531738,1.000000 
z"/>
<path fill="#FEF0D2" opacity="1.000000" stroke="none" 
	d="
M644.531616,1.000000 
	C644.917480,2.824788 644.760437,4.649692 644.763245,6.474347 
	C644.850586,62.609890 645.018677,118.745399 645.029663,174.880936 
	C645.036194,208.078690 656.189697,236.984360 679.242432,260.699524 
	C701.476135,283.572144 728.909729,296.005768 761.037903,297.106598 
	C777.919922,297.685028 794.572083,299.357208 810.646179,304.929047 
	C838.843506,314.703125 861.746094,331.656372 879.140259,355.871887 
	C896.664490,380.268463 905.252563,407.596039 905.222900,437.654205 
	C905.174438,486.794983 905.189636,535.935852 905.088989,585.538330 
	C899.311951,586.000000 893.623962,586.000000 887.467957,586.000000 
	C886.681152,535.695068 886.607422,485.387024 885.962891,435.086273 
	C885.482056,397.559082 869.518372,367.190857 841.008484,343.306549 
	C822.937683,328.167542 801.596008,320.249725 778.459656,317.172638 
	C770.570190,316.123322 762.509216,316.356293 754.525879,316.021667 
	C729.157898,314.958282 706.034973,306.998352 685.196472,292.701141 
	C654.448303,271.605042 635.309265,242.533676 627.706482,206.092239 
	C625.953308,197.688950 625.185669,188.936630 625.154480,180.340622 
	C624.938782,120.873299 625.037903,61.404827 625.017944,1.468362 
	C631.354431,1.000000 637.708801,1.000000 644.531616,1.000000 
z"/>
<path fill="#FFF0D2" opacity="1.000000" stroke="none" 
	d="
M938.468384,586.000000 
	C938.118103,585.015198 938.340271,584.030273 938.339417,583.045532 
	C938.296021,533.070984 938.728271,483.089417 938.022888,433.123962 
	C937.416382,390.164185 922.077148,352.663788 892.857422,320.968201 
	C860.472412,285.839081 820.422424,267.120331 772.729675,264.822357 
	C757.718323,264.099091 742.780579,263.235535 728.992920,256.323486 
	C695.865112,239.715836 678.391968,212.837540 678.070435,175.841248 
	C677.566711,117.873924 677.884949,59.899441 677.927490,1.463995 
	C684.021179,1.000000 690.042297,1.000000 696.531738,1.000000 
	C697.093506,58.832592 697.045471,116.665894 697.333862,174.497513 
	C697.505432,208.902847 718.262756,235.774185 750.745483,243.292633 
	C759.562805,245.333496 768.904663,245.242737 778.025635,245.813934 
	C823.118896,248.637894 862.260620,265.411072 895.475525,295.940308 
	C926.774963,324.708984 946.661255,360.023987 954.259521,401.849213 
	C956.597778,414.720367 957.688782,427.974060 957.800476,441.065796 
	C958.210022,489.061890 957.966858,537.063538 957.984741,585.531555 
	C951.645569,586.000000 945.291199,586.000000 938.468384,586.000000 
z"/>
</svg>